<svg xmlns="http://www.w3.org/2000/svg" viewBox="0 0 1496.03 1033.33"><title>sintaxRecurso 2</title><g id="Capa_2" data-name="Capa 2"><g id="Capa_1-2" data-name="Capa 1"><path d="M392.17,770a60.35,60.35,0,0,0,9.34-4.81,70.28,70.28,0,0,0,7.9-5.77V719.06H368.48v14.7h24.58v18.09a36.14,36.14,0,0,1-10.34,5.32,40.08,40.08,0,0,1-12.81,2,32.8,32.8,0,0,1-13.36-2.62,30.67,30.67,0,0,1-16.92-18,39.41,39.41,0,0,1-2.33-13.77v-.27a35.89,35.89,0,0,1,2.4-13.08,34.16,34.16,0,0,1,6.6-10.8,32,32,0,0,1,9.89-7.36,27.78,27.78,0,0,1,12.29-2.76,42,42,0,0,1,8.31.76,37,37,0,0,1,6.93,2.06,35.15,35.15,0,0,1,6,3.22,63.55,63.55,0,0,1,5.63,4.26L406.11,688a60.06,60.06,0,0,0-7.62-5.56,47.7,47.7,0,0,0-8.31-4.05,53.06,53.06,0,0,0-9.55-2.55,67.87,67.87,0,0,0-11.46-.89,49.31,49.31,0,0,0-35.76,14.76,48.62,48.62,0,0,0-10.3,15.87,50.32,50.32,0,0,0-3.67,19.09V725A52.59,52.59,0,0,0,323,744.54a45.85,45.85,0,0,0,25.83,26.1,53.53,53.53,0,0,0,20.46,3.78,61.52,61.52,0,0,0,12.09-1.17A59.67,59.67,0,0,0,392.17,770Z"/><path d="M473.69,675.93l-42.3,96.84h17.3l9.89-23.22h45.47l9.75,23.22h17.86l-42.31-96.84Zm-8.93,58.65,16.49-38.46,16.62,38.46Z"/><polygon points="552.94 772.77 631.65 772.77 631.65 757.8 574.92 757.8 631.65 689.12 631.65 676.62 554.73 676.62 554.73 691.59 609.67 691.59 552.94 760.27 552.94 772.77"/><path d="M695.1,675.93l-42.3,96.84h17.31L680,749.55h45.46l9.75,23.22h17.86l-42.31-96.84Zm-8.92,58.65,16.48-38.46,16.62,38.46Z"/><path d="M841.8,732q0,13.34-6.49,20.06t-17.82,6.73q-11.47,0-18-7T793,731.29V676.62H776.28V732a53.46,53.46,0,0,0,2.88,18.34,35.85,35.85,0,0,0,8.25,13.25,34,34,0,0,0,12.91,8,50.13,50.13,0,0,0,16.89,2.68,51.22,51.22,0,0,0,17.1-2.68,33.56,33.56,0,0,0,13-8.11A36.89,36.89,0,0,0,855.6,750a54.88,54.88,0,0,0,2.95-18.82V676.62H841.8Z"/><polygon points="961.16 691.86 961.16 676.62 890.01 676.62 890.01 772.77 961.84 772.77 961.84 757.52 906.76 757.52 906.76 731.83 954.98 731.83 954.98 716.59 906.76 716.59 906.76 691.86 961.16 691.86"/><path d="M60.64,813.75A33.58,33.58,0,0,0,49.38,808a49.43,49.43,0,0,0-14.49-2H0v96.15H7.14V866.29h26a52.65,52.65,0,0,0,14.36-1.92,36.57,36.57,0,0,0,11.95-5.77A27.58,27.58,0,0,0,70.6,835.66v-.28A28.34,28.34,0,0,0,68,823,26.16,26.16,0,0,0,60.64,813.75Zm2.82,22.32a21.82,21.82,0,0,1-2.2,9.81,22.14,22.14,0,0,1-6.11,7.53,28.09,28.09,0,0,1-9.41,4.77,42.42,42.42,0,0,1-12.23,1.65H7.14V812.44h27.2A43.31,43.31,0,0,1,46.15,814a27.63,27.63,0,0,1,9.2,4.43,19.85,19.85,0,0,1,6,7.25,22.81,22.81,0,0,1,2.13,10.15Z"/><polygon points="166.34 895.68 104.39 895.68 104.39 856.95 159.47 856.95 159.47 850.49 104.39 850.49 104.39 812.44 165.65 812.44 165.65 805.99 97.25 805.99 97.25 902.14 166.34 902.14 166.34 895.68"/><path d="M273.06,902.14l-31.73-41.07a45.06,45.06,0,0,0,11.19-3,30.56,30.56,0,0,0,8.93-5.57,24.45,24.45,0,0,0,5.91-8.17,26,26,0,0,0,2.13-10.78v-.28a25.07,25.07,0,0,0-1.93-9.82,24.72,24.72,0,0,0-5.35-8A30.87,30.87,0,0,0,251,808.53a45.5,45.5,0,0,0-15.8-2.54H194.77v96.15h7.14V862.3h31.45L264,902.14Zm-71.15-46.29V812.44h32.83q13.19,0,20.4,5.65t7.21,15.44v.27a19.74,19.74,0,0,1-2.13,9.3,20.58,20.58,0,0,1-5.84,6.89,27,27,0,0,1-8.86,4.34,39.52,39.52,0,0,1-11.19,1.52Z"/><polygon points="306.71 856.95 361.79 856.95 361.79 850.49 306.71 850.49 306.71 812.44 367.97 812.44 367.97 805.99 299.57 805.99 299.57 902.14 368.66 902.14 368.66 895.68 306.71 895.68 306.71 856.95"/><polygon points="394.48 812.44 457.94 812.44 392.14 898.15 392.14 902.14 468.1 902.14 468.1 895.68 402.31 895.68 468.1 809.97 468.1 805.99 394.48 805.99 394.48 812.44"/><rect x="492.41" y="857.5" width="36.81" height="7.69"/><path d="M628.2,860.39a25.69,25.69,0,0,0-6.93-4.66,47.11,47.11,0,0,0-8.22-3,43.47,43.47,0,0,0,5.82-3.1,22.78,22.78,0,0,0,5.27-4.61,22.25,22.25,0,0,0,3.77-6.47,23.86,23.86,0,0,0,1.44-8.67v-.27a20.62,20.62,0,0,0-6.17-15.14,27.19,27.19,0,0,0-10.35-6.26,43.46,43.46,0,0,0-14.6-2.27H558.61v96.15H600.3a50.3,50.3,0,0,0,14.12-1.85,34.29,34.29,0,0,0,10.83-5.21,23.2,23.2,0,0,0,7-8.23,23.85,23.85,0,0,0,2.47-10.9v-.27a20.25,20.25,0,0,0-1.78-8.71A22,22,0,0,0,628.2,860.39Zm-62.44-47.95h32.41q11.67,0,17.86,4.92a15.7,15.7,0,0,1,6.18,12.93v.28a19,19,0,0,1-1.86,8.58,17.34,17.34,0,0,1-5.14,6.22,24,24,0,0,1-7.83,3.81,35.68,35.68,0,0,1-9.89,1.31H565.76ZM627.57,876a16.89,16.89,0,0,1-7.28,14.4q-7.29,5.31-19.65,5.31H565.76V857h32.55q14.28,0,21.77,4.89a15.62,15.62,0,0,1,7.49,13.85Z"/><path d="M699.81,805.3,655,902.14h7.41l12.23-26.93H731.4l12.23,26.93h7.83L706.68,805.3ZM677.7,868.76l25.41-55.63,25.27,55.63Z"/><path d="M835,858.12a30.64,30.64,0,0,0,8.92-5.57,24.45,24.45,0,0,0,5.91-8.17A26,26,0,0,0,852,833.6v-.28a25.25,25.25,0,0,0-1.92-9.82,24.75,24.75,0,0,0-5.36-8,30.79,30.79,0,0,0-11.26-6.94,45.5,45.5,0,0,0-15.8-2.54H777.28v96.15h7.14V862.3h31.46l30.63,39.84h9.06l-31.73-41.07A45.26,45.26,0,0,0,835,858.12Zm-50.62-2.27V812.44h32.83q13.18,0,20.4,5.65t7.21,15.44v.27a19.74,19.74,0,0,1-2.13,9.3,20.58,20.58,0,0,1-5.84,6.89,26.85,26.85,0,0,1-8.86,4.34,39.47,39.47,0,0,1-11.19,1.52Z"/><path d="M920.68,862.3l30.63,39.84h9.06l-31.73-41.07a45.26,45.26,0,0,0,11.2-3,30.64,30.64,0,0,0,8.92-5.57,24.45,24.45,0,0,0,5.91-8.17,26,26,0,0,0,2.13-10.78v-.28a25.25,25.25,0,0,0-1.92-9.82,24.75,24.75,0,0,0-5.36-8,30.79,30.79,0,0,0-11.26-6.94,45.5,45.5,0,0,0-15.8-2.54H882.08v96.15h7.14V862.3h31.46Zm-31.46-49.86h32.83q13.19,0,20.4,5.65t7.21,15.44v.27a19.74,19.74,0,0,1-2.13,9.3,20.58,20.58,0,0,1-5.84,6.89,26.85,26.85,0,0,1-8.86,4.34,39.47,39.47,0,0,1-11.19,1.52H889.22Z"/><path d="M1066,888.81a50,50,0,0,0,9.82-15.86,51.7,51.7,0,0,0,3.5-18.89.17.17,0,0,0,0-.27,52.18,52.18,0,0,0-3.43-18.82,48.56,48.56,0,0,0-9.76-15.72,47,47,0,0,0-35-14.91,47.66,47.66,0,0,0-19.92,4A46.71,46.71,0,0,0,996,819.31a49.75,49.75,0,0,0-9.82,15.87,51.49,51.49,0,0,0-3.51,18.88v.28a52,52,0,0,0,3.44,18.82,48.2,48.2,0,0,0,9.75,15.72,46.81,46.81,0,0,0,35,14.91,47.8,47.8,0,0,0,19.85-4.06A46.34,46.34,0,0,0,1066,888.81Zm-34.89,8.52a39.4,39.4,0,0,1-16.49-3.43,40.09,40.09,0,0,1-13-9.28,42.66,42.66,0,0,1-8.52-13.73A45.77,45.77,0,0,1,990,854.06v-.27a46.25,46.25,0,0,1,3-16.76,42.1,42.1,0,0,1,8.45-13.67,40.78,40.78,0,0,1,45.81-9.13,40.37,40.37,0,0,1,13,9.27,43.07,43.07,0,0,1,8.51,13.74,45.72,45.72,0,0,1,3.09,16.82v.28a46.25,46.25,0,0,1-3,16.76,42.22,42.22,0,0,1-8.45,13.66,39.42,39.42,0,0,1-29.32,12.57Z"/><path d="M1164.61,885.59a18.37,18.37,0,0,1-4.94,6,23.59,23.59,0,0,1-7.69,4,32.51,32.51,0,0,1-9.89,1.45,50.83,50.83,0,0,1-9.89-.9,44.09,44.09,0,0,1-16.69-7,69.22,69.22,0,0,1-7.9-6.39l-4.67,5.36a64.14,64.14,0,0,0,17.93,11.53,53.74,53.74,0,0,0,20.81,3.85,40.93,40.93,0,0,0,12.84-1.92,30.93,30.93,0,0,0,10-5.36,24.94,24.94,0,0,0,6.59-8.31,23.77,23.77,0,0,0,2.4-10.64V877q0-10.57-7.41-16.83T1142,850.49a98.59,98.59,0,0,1-14-3.84,30.56,30.56,0,0,1-8.59-4.61,13.61,13.61,0,0,1-4.25-5.63,19.45,19.45,0,0,1-1.17-6.93v-.28a15.43,15.43,0,0,1,1.65-7,17.14,17.14,0,0,1,4.74-5.77,23.74,23.74,0,0,1,7.41-3.92,30.63,30.63,0,0,1,9.69-1.44,41.26,41.26,0,0,1,28.71,10.85l4.53-5.63a54.4,54.4,0,0,0-14.9-8.79,51.15,51.15,0,0,0-18.07-2.89,38.14,38.14,0,0,0-12.36,1.93,30.6,30.6,0,0,0-9.75,5.35,25.41,25.41,0,0,0-6.46,8,21.79,21.79,0,0,0-2.33,10v.27a25.06,25.06,0,0,0,1.78,9.76,19.4,19.4,0,0,0,5.7,7.48,36.72,36.72,0,0,0,10.1,5.63,92.81,92.81,0,0,0,14.83,4.19,86.85,86.85,0,0,1,13.46,3.64,31,31,0,0,1,8.31,4.47,13.2,13.2,0,0,1,4.26,5.49,18.92,18.92,0,0,1,1.17,6.87V878A16.58,16.58,0,0,1,1164.61,885.59Z"/><path d="M46.76,939.69,46,938.1l-.76,1.59h-.82l-14,29.38h5.26l3.6-7.54H52.77l3.59,7.54h5.31L47.62,939.69ZM41.5,956.8l4.5-9.41,4.49,9.41Z"/><path d="M162.85,957.31a9.71,9.71,0,0,0,3.23-1.75,8.19,8.19,0,0,0,2.23-2.84,8.51,8.51,0,0,0,.81-3.79,8.28,8.28,0,0,0-2.38-6.09c-2-2-4.88-3-8.65-3H145.8v29.2h4.79v-11H157l8.35,11h6l-8.85-11.62Zm-12.26-3.93v-8.79H158a8.07,8.07,0,0,1,4.9,1.27,3.62,3.62,0,0,1,1.41,3.19,3.79,3.79,0,0,1-.34,1.64,3.36,3.36,0,0,1-1,1.29,6.08,6.08,0,0,1-2,1,11.72,11.72,0,0,1-3.25.4Z"/><path d="M283,960.18a16.35,16.35,0,0,0,0-11.37,15.44,15.44,0,0,0-2.92-4.81,14.36,14.36,0,0,0-4.59-3.3,15,15,0,0,0-12,0,14.55,14.55,0,0,0-4.58,3.32,15,15,0,0,0-2.92,4.79,16.23,16.23,0,0,0-1,5.7,15.79,15.79,0,0,0,1,5.65,15,15,0,0,0,2.92,4.78,13.84,13.84,0,0,0,4.56,3.31,14.12,14.12,0,0,0,6,1.25,13.88,13.88,0,0,0,5.53-1,14.86,14.86,0,0,0,3-1.64l3.91,3.43,3.12-3.63-3.7-3.22A15.56,15.56,0,0,0,283,960.18Zm-10.77-4.73L269,959l5.26,4.58a10.2,10.2,0,0,1-1.1.54,9.53,9.53,0,0,1-3.65.68,9.22,9.22,0,0,1-3.93-.82,10,10,0,0,1-3.11-2.27,10.26,10.26,0,0,1-2-3.29,11,11,0,0,1-.72-4,11.21,11.21,0,0,1,.71-3.94,9.77,9.77,0,0,1,1.94-3.23,10.75,10.75,0,0,1,3.09-2.25,9.36,9.36,0,0,1,4-.81,9.08,9.08,0,0,1,4,.85,9.48,9.48,0,0,1,3.09,2.24,10.15,10.15,0,0,1,2,3.28,11.46,11.46,0,0,1,0,8,10.59,10.59,0,0,1-.83,1.73Z"/><path d="M389.81,956a13.27,13.27,0,0,1-.57,4.1,7.35,7.35,0,0,1-1.47,2.66,5.7,5.7,0,0,1-2.17,1.49,9.22,9.22,0,0,1-6.26,0,6.1,6.1,0,0,1-2.23-1.5,7.78,7.78,0,0,1-1.52-2.69,13.11,13.11,0,0,1-.57-4.09V939.87h-4.79v16.06a17.84,17.84,0,0,0,.84,5.72,11.75,11.75,0,0,0,2.52,4.31,10.88,10.88,0,0,0,4,2.67,13.57,13.57,0,0,0,4.85.85,13.82,13.82,0,0,0,4.88-.85,10.5,10.5,0,0,0,4-2.68,11.68,11.68,0,0,0,2.51-4.34,18,18,0,0,0,.84-5.68V939.87h-4.79Z"/><rect x="482.17" y="939.87" width="4.78" height="29.2"/><polygon points="572.15 944.59 581.26 944.59 581.26 969.07 586.06 969.07 586.06 944.59 595.16 944.59 595.16 939.87 572.15 939.87 572.15 944.59"/><polygon points="684.89 956.76 700.15 956.76 700.15 952.05 684.89 952.05 684.89 944.59 701.71 944.59 701.71 939.87 680.1 939.87 680.1 969.07 701.89 969.07 701.89 964.35 684.89 964.35 684.89 956.76"/><path d="M809.06,961.34a11.55,11.55,0,0,1-1.47,1.33,9.22,9.22,0,0,1-1.75,1.08,11.14,11.14,0,0,1-2.1.76,9.47,9.47,0,0,1-2.38.28,8.69,8.69,0,0,1-3.76-.81,9.61,9.61,0,0,1-3-2.2,10.32,10.32,0,0,1-2-3.31,10.74,10.74,0,0,1-.74-4,10.64,10.64,0,0,1,.73-4,10.29,10.29,0,0,1,2-3.3,9.18,9.18,0,0,1,3-2.2,9,9,0,0,1,3.81-.81,11.6,11.6,0,0,1,2.6.27,8.28,8.28,0,0,1,2,.72,9,9,0,0,1,1.62,1,18.18,18.18,0,0,1,1.49,1.27l1.42,1.35,3.32-3.34L812.38,944a23.79,23.79,0,0,0-2-1.73,13.44,13.44,0,0,0-2.46-1.53,13.89,13.89,0,0,0-2.94-1,17,17,0,0,0-3.6-.36,13.7,13.7,0,0,0-5.79,1.23A14.19,14.19,0,0,0,791,944a15,15,0,0,0-3,4.76,16.49,16.49,0,0,0,0,11.58,14.47,14.47,0,0,0,7.51,8,13.79,13.79,0,0,0,5.75,1.19,16.3,16.3,0,0,0,3.55-.38,16.67,16.67,0,0,0,3-1.08,14.57,14.57,0,0,0,2.59-1.6,17.78,17.78,0,0,0,2.07-1.85l1.39-1.48-3.55-3.26Z"/><polygon points="904.83 969.07 909.62 969.07 909.62 944.59 918.72 944.59 918.72 939.87 895.72 939.87 895.72 944.59 904.83 944.59 904.83 969.07"/><path d="M1027.67,944a14.39,14.39,0,0,0-4.59-3.3,15,15,0,0,0-12,0,14.32,14.32,0,0,0-4.58,3.32,14.78,14.78,0,0,0-2.9,4.78,15.9,15.9,0,0,0-1,5.71,15.71,15.71,0,0,0,1,5.64,14.88,14.88,0,0,0,2.91,4.79,14,14,0,0,0,4.57,3.32,15.24,15.24,0,0,0,12,0,13.93,13.93,0,0,0,4.63-3.34,15,15,0,0,0,2.89-4.77,15.7,15.7,0,0,0,1-5.72,15.91,15.91,0,0,0-1-5.63A15.07,15.07,0,0,0,1027.67,944Zm-10.56,20.79a9.31,9.31,0,0,1-3.93-.82,9.89,9.89,0,0,1-5.12-5.56,10.91,10.91,0,0,1-.71-4,11.16,11.16,0,0,1,.7-3.94,9.74,9.74,0,0,1,2-3.24,10.32,10.32,0,0,1,3.07-2.24,9.36,9.36,0,0,1,4-.81,9.09,9.09,0,0,1,4,.85,9.33,9.33,0,0,1,3.08,2.24,10.11,10.11,0,0,1,2,3.28,11.57,11.57,0,0,1,0,8,9.66,9.66,0,0,1-5,5.46A9.21,9.21,0,0,1,1017.11,964.79Z"/><path d="M1133,963.45a5.55,5.55,0,0,1-1.84.91,8.17,8.17,0,0,1-2.57.36,11,11,0,0,1-4.38-.86,12.2,12.2,0,0,1-3.72-2.47l-1.41-1.34-3.42,3.39,1.5,1.42a17.41,17.41,0,0,0,5.17,3.39,16.19,16.19,0,0,0,6.18,1.18,13.78,13.78,0,0,0,4.2-.61,9.84,9.84,0,0,0,3.34-1.78,7.91,7.91,0,0,0,2.27-2.81,8,8,0,0,0,.8-3.57,7.7,7.7,0,0,0-.59-3.06,6.53,6.53,0,0,0-2.07-2.67,12.34,12.34,0,0,0-3.24-1.74,28.76,28.76,0,0,0-4.41-1.21,28.13,28.13,0,0,1-3.6-.93,7.83,7.83,0,0,1-2-1,2,2,0,0,1-.7-.79,3.14,3.14,0,0,1-.22-1.3,2.67,2.67,0,0,1,.29-1.22,3.6,3.6,0,0,1,1-1.19,5.61,5.61,0,0,1,1.66-.93,8,8,0,0,1,2.39-.35,10.8,10.8,0,0,1,3.69.64,13.15,13.15,0,0,1,3.24,1.77l1.59,1.2,2.92-3.83-1.58-1.21a16.63,16.63,0,0,0-4.47-2.42,16.35,16.35,0,0,0-5.32-.87,12,12,0,0,0-3.91.61,10.07,10.07,0,0,0-3.22,1.72,8.21,8.21,0,0,0-2.22,2.68,7.18,7.18,0,0,0-.85,3.49,7.65,7.65,0,0,0,.64,3.18,6.88,6.88,0,0,0,2.11,2.61,12.41,12.41,0,0,0,3.19,1.67,31.75,31.75,0,0,0,4.25,1.15,26.8,26.8,0,0,1,3.77,1,6.48,6.48,0,0,1,1.92.93,2.18,2.18,0,0,1,.73.87,3.35,3.35,0,0,1,.23,1.35,3.3,3.3,0,0,1-.32,1.46A3.86,3.86,0,0,1,1133,963.45Z"/><polygon points="462.7 0 462.7 593.7 474.7 593.7 474.7 12 1484.03 12 1484.03 1021.33 897.72 1021.33 897.72 1033.33 1496.03 1033.33 1496.03 0 462.7 0"/></g></g></svg>